# xmcd
#
# Track frame offsets:
#	150
#	14342
#	29555
#	45455
#	61965
#	79085
#	94185
#	115255
#	131817
#	145172
#	160675
#	177835
#	198065
#	212980
#	225570
#
# Disc length: 3280 seconds
#
# Revision: 0
# Processed by: cddbd v1.5.1PL0 Copyright (c) Steve Scherf et al.
# Submitted via: EasyCDDAExtractor 8.0.1.1
#
DISCID=c70cce0f
DTITLE=Gina Notrica - One Of Life's Moments
DYEAR=2002
DGENRE=Country
TTITLE0=I Wanna Feel Like A Woman Tonight
TTITLE1=Bang, Bang Cowboy
TTITLE2=The Lucky One's
TTITLE3=You Knew
TTITLE4=Long Slow Beautiful Dance
TTITLE5=One Of Life's Moments
TTITLE6=This Sky Of Mine
TTITLE7=Anything But You
TTITLE8=I Bought Those Boots (Walkin' Out On Me)
TTITLE9=We Got The Thing
TTITLE10=Borrowed Wings
TTITLE11=Don't Think You're Leavin' Me Today
TTITLE12=I Can Live Without It
TTITLE13=Guardian Angel
TTITLE14=This Old House
EXTD=
EXTT0=
EXTT1=
EXTT2=
EXTT3=
EXTT4=
EXTT5=
EXTT6=
EXTT7=
EXTT8=
EXTT9=
EXTT10=
EXTT11=
EXTT12=
EXTT13=
EXTT14=
PLAYORDER=
